<svg xmlns="http://www.w3.org/2000/svg" width="800" height="600" viewBox="0 0 800 600">
  <defs>
    <linearGradient id="bg" x1="0%" y1="0%" x2="100%" y2="100%">
      <stop offset="0%" style="stop-color:#6C00FF;stop-opacity:1" />
      <stop offset="50%" style="stop-color:#4CD7F8;stop-opacity:1" />
      <stop offset="100%" style="stop-color:#00D27F;stop-opacity:1" />
    </linearGradient>
  </defs>
  <rect width="800" height="600" fill="url(#bg)" rx="20" ry="20"/>
  <rect x="40" y="40" width="720" height="520" fill="white" fill-opacity="0.95" rx="16" ry="16"/>
  
  <!-- Header -->
  <rect x="60" y="60" width="200" height="40" fill="#6C00FF" rx="8" ry="8"/>
  <text x="160" y="85" font-family="Arial, sans-serif" font-size="18" fill="white" text-anchor="middle" font-weight="bold">UFFICIENT</text>
  
  <!-- Dashboard Cards -->
  <rect x="60" y="120" width="220" height="140" fill="#f8fafc" rx="12" ry="12" stroke="#e2e8f0" stroke-width="1"/>
  <rect x="300" y="120" width="220" height="140" fill="#f8fafc" rx="12" ry="12" stroke="#e2e8f0" stroke-width="1"/>
  <rect x="540" y="120" width="200" height="140" fill="#f8fafc" rx="12" ry="12" stroke="#e2e8f0" stroke-width="1"/>
  
  <!-- Task List -->
  <rect x="60" y="280" width="480" height="260" fill="#f8fafc" rx="12" ry="12" stroke="#e2e8f0" stroke-width="1"/>
  
  <!-- Side Panel -->
  <rect x="560" y="280" width="180" height="260" fill="#f8fafc" rx="12" ry="12" stroke="#e2e8f0" stroke-width="1"/>
  
  <!-- Sample Text Elements -->
  <text x="400" y="350" font-family="Arial, sans-serif" font-size="24" fill="#6366f1" text-anchor="middle" font-weight="bold">UFFICIENT Dashboard</text>
  <text x="400" y="380" font-family="Arial, sans-serif" font-size="16" fill="#64748b" text-anchor="middle">Unlock Your Most Efficient Self</text>
  
  <!-- Stats -->
  <circle cx="170" cy="180" r="25" fill="#6C00FF"/>
  <text x="170" y="186" font-family="Arial, sans-serif" font-size="14" fill="white" text-anchor="middle" font-weight="bold">87%</text>
  
  <circle cx="410" cy="180" r="25" fill="#4CD7F8"/>
  <text x="410" y="186" font-family="Arial, sans-serif" font-size="14" fill="white" text-anchor="middle" font-weight="bold">42</text>
  
  <circle cx="640" cy="180" r="25" fill="#00D27F"/>
  <text x="640" y="186" font-family="Arial, sans-serif" font-size="14" fill="white" text-anchor="middle" font-weight="bold">15</text>
</svg>
